<mxfile host="app.diagrams.net" agent="Mozilla/5.0 (Windows NT 10.0; Win64; x64) AppleWebKit/537.36 (KHTML, like Gecko) Chrome/128.0.0.0 Safari/537.36 Edg/128.0.0.0" version="24.7.6">
  <diagram name="Page-1" id="16e2658f-23c8-b752-8be9-c03fbebb8bbe">
    <mxGraphModel dx="1187" dy="624" grid="1" gridSize="10" guides="1" tooltips="1" connect="1" arrows="1" fold="1" page="1" pageScale="1" pageWidth="1100" pageHeight="850" background="none" math="0" shadow="0">
      <root>
        <mxCell id="0" />
        <mxCell id="1" parent="0" />
        <mxCell id="NKrYQFzaIHkAIYK9Q346-1" value="Binding posts" style="rounded=0;whiteSpace=wrap;html=1;" vertex="1" parent="1">
          <mxGeometry x="180" y="90" width="60" height="210" as="geometry" />
        </mxCell>
        <mxCell id="NKrYQFzaIHkAIYK9Q346-2" value="LED PCB" style="rounded=0;whiteSpace=wrap;html=1;" vertex="1" parent="1">
          <mxGeometry x="800" y="90" width="60" height="300" as="geometry" />
        </mxCell>
        <mxCell id="NKrYQFzaIHkAIYK9Q346-3" value="Switches debounce&lt;span style=&quot;background-color: initial;&quot;&gt;&amp;nbsp;PCB&lt;/span&gt;" style="rounded=0;whiteSpace=wrap;html=1;" vertex="1" parent="1">
          <mxGeometry x="580" y="320" width="120" height="120" as="geometry" />
        </mxCell>
        <mxCell id="NKrYQFzaIHkAIYK9Q346-4" value="Buttons debounce&lt;span style=&quot;background-color: initial;&quot;&gt;&amp;nbsp;PCB&lt;/span&gt;" style="rounded=0;whiteSpace=wrap;html=1;" vertex="1" parent="1">
          <mxGeometry x="340" y="320" width="120" height="120" as="geometry" />
        </mxCell>
        <mxCell id="NKrYQFzaIHkAIYK9Q346-5" value="Potentiometers" style="rounded=0;whiteSpace=wrap;html=1;" vertex="1" parent="1">
          <mxGeometry x="440" y="510" width="160" height="50" as="geometry" />
        </mxCell>
        <mxCell id="NKrYQFzaIHkAIYK9Q346-6" value="Switches" style="rounded=0;whiteSpace=wrap;html=1;" vertex="1" parent="1">
          <mxGeometry x="690" y="510" width="150" height="50" as="geometry" />
        </mxCell>
        <mxCell id="NKrYQFzaIHkAIYK9Q346-7" value="Buttons" style="rounded=0;whiteSpace=wrap;html=1;" vertex="1" parent="1">
          <mxGeometry x="200" y="510" width="150" height="50" as="geometry" />
        </mxCell>
        <mxCell id="NKrYQFzaIHkAIYK9Q346-8" value="Rail" style="rounded=0;whiteSpace=wrap;html=1;" vertex="1" parent="1">
          <mxGeometry x="320" y="40" width="40" height="30" as="geometry" />
        </mxCell>
        <mxCell id="NKrYQFzaIHkAIYK9Q346-9" value="Rail" style="rounded=0;whiteSpace=wrap;html=1;" vertex="1" parent="1">
          <mxGeometry x="440" y="40" width="40" height="30" as="geometry" />
        </mxCell>
        <mxCell id="NKrYQFzaIHkAIYK9Q346-10" value="Rail" style="rounded=0;whiteSpace=wrap;html=1;" vertex="1" parent="1">
          <mxGeometry x="560" y="40" width="40" height="30" as="geometry" />
        </mxCell>
        <mxCell id="NKrYQFzaIHkAIYK9Q346-11" value="Rail" style="rounded=0;whiteSpace=wrap;html=1;" vertex="1" parent="1">
          <mxGeometry x="680" y="40" width="40" height="30" as="geometry" />
        </mxCell>
        <mxCell id="NKrYQFzaIHkAIYK9Q346-17" value="" style="endArrow=none;html=1;rounded=0;fillColor=#f8cecc;strokeColor=#FF0000;" edge="1" parent="1">
          <mxGeometry width="50" height="50" relative="1" as="geometry">
            <mxPoint x="240" y="270" as="sourcePoint" />
            <mxPoint x="270" y="270" as="targetPoint" />
          </mxGeometry>
        </mxCell>
        <mxCell id="NKrYQFzaIHkAIYK9Q346-18" value="" style="endArrow=none;html=1;rounded=0;" edge="1" parent="1">
          <mxGeometry width="50" height="50" relative="1" as="geometry">
            <mxPoint x="240" y="239.86" as="sourcePoint" />
            <mxPoint x="270" y="239.86" as="targetPoint" />
          </mxGeometry>
        </mxCell>
        <mxCell id="NKrYQFzaIHkAIYK9Q346-19" value="" style="endArrow=none;html=1;rounded=0;fillColor=#f8cecc;strokeColor=#FF0000;" edge="1" parent="1">
          <mxGeometry width="50" height="50" relative="1" as="geometry">
            <mxPoint x="240" y="210" as="sourcePoint" />
            <mxPoint x="270" y="210" as="targetPoint" />
          </mxGeometry>
        </mxCell>
        <mxCell id="NKrYQFzaIHkAIYK9Q346-20" value="" style="endArrow=none;html=1;rounded=0;fillColor=#f8cecc;strokeColor=#FF0000;" edge="1" parent="1">
          <mxGeometry width="50" height="50" relative="1" as="geometry">
            <mxPoint x="240" y="180" as="sourcePoint" />
            <mxPoint x="270" y="180" as="targetPoint" />
          </mxGeometry>
        </mxCell>
        <mxCell id="NKrYQFzaIHkAIYK9Q346-21" value="" style="endArrow=none;html=1;rounded=0;entryX=0;entryY=0.2;entryDx=0;entryDy=0;entryPerimeter=0;" edge="1" parent="1" target="NKrYQFzaIHkAIYK9Q346-2">
          <mxGeometry width="50" height="50" relative="1" as="geometry">
            <mxPoint x="240" y="150" as="sourcePoint" />
            <mxPoint x="750" y="150" as="targetPoint" />
          </mxGeometry>
        </mxCell>
        <mxCell id="NKrYQFzaIHkAIYK9Q346-22" value="" style="endArrow=none;html=1;rounded=0;fillColor=#f8cecc;strokeColor=#FF0000;entryX=0;entryY=0.1;entryDx=0;entryDy=0;entryPerimeter=0;" edge="1" parent="1" target="NKrYQFzaIHkAIYK9Q346-2">
          <mxGeometry width="50" height="50" relative="1" as="geometry">
            <mxPoint x="240" y="120" as="sourcePoint" />
            <mxPoint x="790" y="120" as="targetPoint" />
          </mxGeometry>
        </mxCell>
        <mxCell id="NKrYQFzaIHkAIYK9Q346-23" value="" style="endArrow=none;html=1;rounded=0;fillColor=#f8cecc;strokeColor=#FF0000;exitX=0.25;exitY=1;exitDx=0;exitDy=0;" edge="1" parent="1" source="NKrYQFzaIHkAIYK9Q346-8">
          <mxGeometry width="50" height="50" relative="1" as="geometry">
            <mxPoint x="320" y="80" as="sourcePoint" />
            <mxPoint x="330" y="120" as="targetPoint" />
          </mxGeometry>
        </mxCell>
        <mxCell id="NKrYQFzaIHkAIYK9Q346-27" value="" style="endArrow=none;html=1;rounded=0;fillColor=#f8cecc;strokeColor=#FF0000;exitX=0.25;exitY=1;exitDx=0;exitDy=0;" edge="1" parent="1">
          <mxGeometry width="50" height="50" relative="1" as="geometry">
            <mxPoint x="450" y="70" as="sourcePoint" />
            <mxPoint x="450" y="120" as="targetPoint" />
          </mxGeometry>
        </mxCell>
        <mxCell id="NKrYQFzaIHkAIYK9Q346-28" value="" style="endArrow=none;html=1;rounded=0;fillColor=#f8cecc;strokeColor=#FF0000;exitX=0.25;exitY=1;exitDx=0;exitDy=0;" edge="1" parent="1">
          <mxGeometry width="50" height="50" relative="1" as="geometry">
            <mxPoint x="570" y="70" as="sourcePoint" />
            <mxPoint x="570" y="120" as="targetPoint" />
          </mxGeometry>
        </mxCell>
        <mxCell id="NKrYQFzaIHkAIYK9Q346-29" value="" style="endArrow=none;html=1;rounded=0;fillColor=#f8cecc;strokeColor=#FF0000;exitX=0.25;exitY=1;exitDx=0;exitDy=0;" edge="1" parent="1">
          <mxGeometry width="50" height="50" relative="1" as="geometry">
            <mxPoint x="690" y="70" as="sourcePoint" />
            <mxPoint x="690" y="120" as="targetPoint" />
          </mxGeometry>
        </mxCell>
        <mxCell id="NKrYQFzaIHkAIYK9Q346-30" value="" style="endArrow=none;html=1;rounded=0;fillColor=#f8cecc;strokeColor=#000000;exitX=0.25;exitY=1;exitDx=0;exitDy=0;" edge="1" parent="1">
          <mxGeometry width="50" height="50" relative="1" as="geometry">
            <mxPoint x="350" y="70" as="sourcePoint" />
            <mxPoint x="350" y="150" as="targetPoint" />
          </mxGeometry>
        </mxCell>
        <mxCell id="NKrYQFzaIHkAIYK9Q346-31" value="" style="endArrow=none;html=1;rounded=0;fillColor=#f8cecc;strokeColor=#000000;exitX=0.25;exitY=1;exitDx=0;exitDy=0;" edge="1" parent="1">
          <mxGeometry width="50" height="50" relative="1" as="geometry">
            <mxPoint x="710" y="70" as="sourcePoint" />
            <mxPoint x="710" y="150" as="targetPoint" />
          </mxGeometry>
        </mxCell>
        <mxCell id="NKrYQFzaIHkAIYK9Q346-32" value="" style="endArrow=none;html=1;rounded=0;fillColor=#f8cecc;strokeColor=#000000;exitX=0.25;exitY=1;exitDx=0;exitDy=0;" edge="1" parent="1">
          <mxGeometry width="50" height="50" relative="1" as="geometry">
            <mxPoint x="590" y="70" as="sourcePoint" />
            <mxPoint x="590" y="150" as="targetPoint" />
          </mxGeometry>
        </mxCell>
        <mxCell id="NKrYQFzaIHkAIYK9Q346-33" value="" style="endArrow=none;html=1;rounded=0;fillColor=#f8cecc;strokeColor=#000000;exitX=0.25;exitY=1;exitDx=0;exitDy=0;" edge="1" parent="1">
          <mxGeometry width="50" height="50" relative="1" as="geometry">
            <mxPoint x="470" y="70" as="sourcePoint" />
            <mxPoint x="470" y="150" as="targetPoint" />
          </mxGeometry>
        </mxCell>
        <mxCell id="NKrYQFzaIHkAIYK9Q346-34" value="" style="endArrow=none;html=1;rounded=0;fillColor=#f8cecc;strokeColor=#000000;entryX=0.583;entryY=0;entryDx=0;entryDy=0;entryPerimeter=0;" edge="1" parent="1" target="NKrYQFzaIHkAIYK9Q346-3">
          <mxGeometry width="50" height="50" relative="1" as="geometry">
            <mxPoint x="310" y="150" as="sourcePoint" />
            <mxPoint x="650" y="310" as="targetPoint" />
            <Array as="points">
              <mxPoint x="310" y="300" />
              <mxPoint x="650" y="300" />
            </Array>
          </mxGeometry>
        </mxCell>
        <mxCell id="NKrYQFzaIHkAIYK9Q346-35" value="" style="endArrow=none;html=1;rounded=0;fillColor=#f8cecc;strokeColor=#FF0000;exitX=0.25;exitY=1;exitDx=0;exitDy=0;entryX=0.417;entryY=0;entryDx=0;entryDy=0;entryPerimeter=0;" edge="1" parent="1" target="NKrYQFzaIHkAIYK9Q346-3">
          <mxGeometry width="50" height="50" relative="1" as="geometry">
            <mxPoint x="290" y="120" as="sourcePoint" />
            <mxPoint x="630" y="310" as="targetPoint" />
            <Array as="points">
              <mxPoint x="290" y="280" />
              <mxPoint x="630" y="280" />
            </Array>
          </mxGeometry>
        </mxCell>
        <mxCell id="NKrYQFzaIHkAIYK9Q346-37" value="" style="endArrow=none;html=1;rounded=0;fillColor=#f8cecc;strokeColor=#000000;" edge="1" parent="1">
          <mxGeometry width="50" height="50" relative="1" as="geometry">
            <mxPoint x="410" y="300" as="sourcePoint" />
            <mxPoint x="410" y="320" as="targetPoint" />
          </mxGeometry>
        </mxCell>
        <mxCell id="NKrYQFzaIHkAIYK9Q346-38" value="" style="endArrow=none;html=1;rounded=0;fillColor=#f8cecc;strokeColor=#FF0000;" edge="1" parent="1">
          <mxGeometry width="50" height="50" relative="1" as="geometry">
            <mxPoint x="390" y="280" as="sourcePoint" />
            <mxPoint x="390" y="320" as="targetPoint" />
          </mxGeometry>
        </mxCell>
        <mxCell id="NKrYQFzaIHkAIYK9Q346-39" value="" style="endArrow=none;html=1;rounded=0;fillColor=#f8cecc;strokeColor=#FF0000;exitX=0.25;exitY=1;exitDx=0;exitDy=0;entryX=0.063;entryY=0;entryDx=0;entryDy=0;entryPerimeter=0;" edge="1" parent="1" target="NKrYQFzaIHkAIYK9Q346-5">
          <mxGeometry width="50" height="50" relative="1" as="geometry">
            <mxPoint x="510" y="280" as="sourcePoint" />
            <mxPoint x="450" y="500" as="targetPoint" />
            <Array as="points">
              <mxPoint x="510" y="450" />
              <mxPoint x="450" y="450" />
            </Array>
          </mxGeometry>
        </mxCell>
        <mxCell id="NKrYQFzaIHkAIYK9Q346-42" value="" style="endArrow=none;html=1;rounded=0;fillColor=#f8cecc;strokeColor=#000000;entryX=0.188;entryY=0;entryDx=0;entryDy=0;entryPerimeter=0;" edge="1" parent="1" target="NKrYQFzaIHkAIYK9Q346-5">
          <mxGeometry width="50" height="50" relative="1" as="geometry">
            <mxPoint x="530" y="300" as="sourcePoint" />
            <mxPoint x="460" y="500" as="targetPoint" />
            <Array as="points">
              <mxPoint x="530" y="470" />
              <mxPoint x="470" y="470" />
            </Array>
          </mxGeometry>
        </mxCell>
        <mxCell id="NKrYQFzaIHkAIYK9Q346-59" value="" style="endArrow=none;html=1;rounded=0;strokeColor=#3333FF;shape=link;entryX=0.417;entryY=1;entryDx=0;entryDy=0;entryPerimeter=0;" edge="1" parent="1" target="NKrYQFzaIHkAIYK9Q346-4">
          <mxGeometry width="50" height="50" relative="1" as="geometry">
            <mxPoint x="350" y="530" as="sourcePoint" />
            <mxPoint x="390" y="450" as="targetPoint" />
            <Array as="points">
              <mxPoint x="390" y="530" />
            </Array>
          </mxGeometry>
        </mxCell>
        <mxCell id="NKrYQFzaIHkAIYK9Q346-60" value="" style="endArrow=none;html=1;rounded=0;strokeColor=#3333FF;shape=link;exitX=1;exitY=0.6;exitDx=0;exitDy=0;exitPerimeter=0;" edge="1" parent="1" source="NKrYQFzaIHkAIYK9Q346-7" target="NKrYQFzaIHkAIYK9Q346-4">
          <mxGeometry width="50" height="50" relative="1" as="geometry">
            <mxPoint x="360" y="540" as="sourcePoint" />
            <mxPoint x="400" y="450" as="targetPoint" />
            <Array as="points">
              <mxPoint x="400" y="540" />
            </Array>
          </mxGeometry>
        </mxCell>
        <mxCell id="NKrYQFzaIHkAIYK9Q346-61" value="" style="endArrow=none;html=1;rounded=0;strokeColor=#3333FF;shape=link;entryX=0.583;entryY=1;entryDx=0;entryDy=0;entryPerimeter=0;exitX=1;exitY=0.8;exitDx=0;exitDy=0;exitPerimeter=0;" edge="1" parent="1" source="NKrYQFzaIHkAIYK9Q346-7" target="NKrYQFzaIHkAIYK9Q346-4">
          <mxGeometry width="50" height="50" relative="1" as="geometry">
            <mxPoint x="370" y="550" as="sourcePoint" />
            <mxPoint x="410" y="460" as="targetPoint" />
            <Array as="points">
              <mxPoint x="410" y="550" />
            </Array>
          </mxGeometry>
        </mxCell>
        <mxCell id="NKrYQFzaIHkAIYK9Q346-62" value="" style="endArrow=none;html=1;rounded=0;strokeColor=#3333FF;shape=link;" edge="1" parent="1">
          <mxGeometry width="50" height="50" relative="1" as="geometry">
            <mxPoint x="350" y="520" as="sourcePoint" />
            <mxPoint x="380" y="440" as="targetPoint" />
            <Array as="points">
              <mxPoint x="380" y="520" />
            </Array>
          </mxGeometry>
        </mxCell>
        <mxCell id="NKrYQFzaIHkAIYK9Q346-63" value="" style="endArrow=none;html=1;rounded=0;strokeColor=#3333FF;shape=link;entryX=0.417;entryY=1;entryDx=0;entryDy=0;entryPerimeter=0;" edge="1" parent="1">
          <mxGeometry width="50" height="50" relative="1" as="geometry">
            <mxPoint x="690" y="530" as="sourcePoint" />
            <mxPoint x="650" y="440" as="targetPoint" />
            <Array as="points">
              <mxPoint x="650" y="530" />
            </Array>
          </mxGeometry>
        </mxCell>
        <mxCell id="NKrYQFzaIHkAIYK9Q346-64" value="" style="endArrow=none;html=1;rounded=0;strokeColor=#3333FF;shape=link;exitX=1;exitY=0.6;exitDx=0;exitDy=0;exitPerimeter=0;" edge="1" parent="1">
          <mxGeometry width="50" height="50" relative="1" as="geometry">
            <mxPoint x="690" y="540" as="sourcePoint" />
            <mxPoint x="640" y="440" as="targetPoint" />
            <Array as="points">
              <mxPoint x="640" y="540" />
            </Array>
          </mxGeometry>
        </mxCell>
        <mxCell id="NKrYQFzaIHkAIYK9Q346-65" value="" style="endArrow=none;html=1;rounded=0;strokeColor=#3333FF;shape=link;entryX=0.583;entryY=1;entryDx=0;entryDy=0;entryPerimeter=0;exitX=1;exitY=0.8;exitDx=0;exitDy=0;exitPerimeter=0;" edge="1" parent="1">
          <mxGeometry width="50" height="50" relative="1" as="geometry">
            <mxPoint x="690" y="550" as="sourcePoint" />
            <mxPoint x="630" y="440" as="targetPoint" />
            <Array as="points">
              <mxPoint x="630" y="550" />
            </Array>
          </mxGeometry>
        </mxCell>
        <mxCell id="NKrYQFzaIHkAIYK9Q346-66" value="" style="endArrow=none;html=1;rounded=0;strokeColor=#3333FF;shape=link;" edge="1" parent="1">
          <mxGeometry width="50" height="50" relative="1" as="geometry">
            <mxPoint x="690" y="520" as="sourcePoint" />
            <mxPoint x="660" y="440" as="targetPoint" />
            <Array as="points">
              <mxPoint x="660" y="520" />
            </Array>
          </mxGeometry>
        </mxCell>
        <mxCell id="NKrYQFzaIHkAIYK9Q346-67" value="Header" style="rounded=0;whiteSpace=wrap;html=1;" vertex="1" parent="1">
          <mxGeometry x="730" y="480" width="70" height="20" as="geometry" />
        </mxCell>
        <mxCell id="NKrYQFzaIHkAIYK9Q346-68" value="" style="endArrow=none;html=1;rounded=0;entryX=0.286;entryY=0;entryDx=0;entryDy=0;entryPerimeter=0;strokeColor=#3333FF;" edge="1" parent="1" target="NKrYQFzaIHkAIYK9Q346-67">
          <mxGeometry width="50" height="50" relative="1" as="geometry">
            <mxPoint x="700" y="430" as="sourcePoint" />
            <mxPoint x="750" y="470" as="targetPoint" />
            <Array as="points">
              <mxPoint x="750" y="430" />
            </Array>
          </mxGeometry>
        </mxCell>
        <mxCell id="NKrYQFzaIHkAIYK9Q346-69" value="" style="endArrow=none;html=1;rounded=0;exitX=1;exitY=0.833;exitDx=0;exitDy=0;exitPerimeter=0;entryX=0.429;entryY=0;entryDx=0;entryDy=0;entryPerimeter=0;strokeColor=#3333FF;" edge="1" parent="1" source="NKrYQFzaIHkAIYK9Q346-3" target="NKrYQFzaIHkAIYK9Q346-67">
          <mxGeometry width="50" height="50" relative="1" as="geometry">
            <mxPoint x="710" y="420" as="sourcePoint" />
            <mxPoint x="760" y="470" as="targetPoint" />
            <Array as="points">
              <mxPoint x="760" y="420" />
            </Array>
          </mxGeometry>
        </mxCell>
        <mxCell id="NKrYQFzaIHkAIYK9Q346-70" value="" style="endArrow=none;html=1;rounded=0;exitX=1;exitY=0.75;exitDx=0;exitDy=0;entryX=0.571;entryY=0;entryDx=0;entryDy=0;entryPerimeter=0;strokeColor=#3333FF;" edge="1" parent="1" source="NKrYQFzaIHkAIYK9Q346-3" target="NKrYQFzaIHkAIYK9Q346-67">
          <mxGeometry width="50" height="50" relative="1" as="geometry">
            <mxPoint x="710" y="410" as="sourcePoint" />
            <mxPoint x="770" y="470" as="targetPoint" />
            <Array as="points">
              <mxPoint x="770" y="410" />
            </Array>
          </mxGeometry>
        </mxCell>
        <mxCell id="NKrYQFzaIHkAIYK9Q346-71" value="" style="endArrow=none;html=1;rounded=0;exitX=1;exitY=0.667;exitDx=0;exitDy=0;exitPerimeter=0;entryX=0.714;entryY=0;entryDx=0;entryDy=0;entryPerimeter=0;strokeColor=#3333FF;" edge="1" parent="1" source="NKrYQFzaIHkAIYK9Q346-3" target="NKrYQFzaIHkAIYK9Q346-67">
          <mxGeometry width="50" height="50" relative="1" as="geometry">
            <mxPoint x="710" y="400" as="sourcePoint" />
            <mxPoint x="780" y="470" as="targetPoint" />
            <Array as="points">
              <mxPoint x="780" y="400" />
            </Array>
          </mxGeometry>
        </mxCell>
        <mxCell id="NKrYQFzaIHkAIYK9Q346-72" value="" style="endArrow=none;html=1;rounded=0;entryX=0.286;entryY=0;entryDx=0;entryDy=0;entryPerimeter=0;strokeColor=#3333FF;" edge="1" parent="1">
          <mxGeometry width="50" height="50" relative="1" as="geometry">
            <mxPoint x="340" y="430" as="sourcePoint" />
            <mxPoint x="290" y="480" as="targetPoint" />
            <Array as="points">
              <mxPoint x="290" y="430" />
            </Array>
          </mxGeometry>
        </mxCell>
        <mxCell id="NKrYQFzaIHkAIYK9Q346-73" value="" style="endArrow=none;html=1;rounded=0;exitX=1;exitY=0.833;exitDx=0;exitDy=0;exitPerimeter=0;entryX=0.429;entryY=0;entryDx=0;entryDy=0;entryPerimeter=0;strokeColor=#3333FF;" edge="1" parent="1">
          <mxGeometry width="50" height="50" relative="1" as="geometry">
            <mxPoint x="340" y="420" as="sourcePoint" />
            <mxPoint x="280" y="480" as="targetPoint" />
            <Array as="points">
              <mxPoint x="280" y="420" />
            </Array>
          </mxGeometry>
        </mxCell>
        <mxCell id="NKrYQFzaIHkAIYK9Q346-74" value="" style="endArrow=none;html=1;rounded=0;exitX=1;exitY=0.75;exitDx=0;exitDy=0;entryX=0.571;entryY=0;entryDx=0;entryDy=0;entryPerimeter=0;strokeColor=#3333FF;" edge="1" parent="1">
          <mxGeometry width="50" height="50" relative="1" as="geometry">
            <mxPoint x="340" y="410" as="sourcePoint" />
            <mxPoint x="270" y="480" as="targetPoint" />
            <Array as="points">
              <mxPoint x="270" y="410" />
            </Array>
          </mxGeometry>
        </mxCell>
        <mxCell id="NKrYQFzaIHkAIYK9Q346-75" value="" style="endArrow=none;html=1;rounded=0;exitX=1;exitY=0.667;exitDx=0;exitDy=0;exitPerimeter=0;entryX=0.714;entryY=0;entryDx=0;entryDy=0;entryPerimeter=0;strokeColor=#3333FF;" edge="1" parent="1">
          <mxGeometry width="50" height="50" relative="1" as="geometry">
            <mxPoint x="340" y="400" as="sourcePoint" />
            <mxPoint x="260" y="480" as="targetPoint" />
            <Array as="points">
              <mxPoint x="260" y="400" />
            </Array>
          </mxGeometry>
        </mxCell>
        <mxCell id="NKrYQFzaIHkAIYK9Q346-76" value="Header" style="rounded=0;whiteSpace=wrap;html=1;" vertex="1" parent="1">
          <mxGeometry x="240" y="480" width="70" height="20" as="geometry" />
        </mxCell>
        <mxCell id="NKrYQFzaIHkAIYK9Q346-77" value="Header" style="rounded=0;whiteSpace=wrap;html=1;" vertex="1" parent="1">
          <mxGeometry x="485" y="480" width="70" height="20" as="geometry" />
        </mxCell>
        <mxCell id="NKrYQFzaIHkAIYK9Q346-78" value="" style="endArrow=none;html=1;rounded=0;strokeColor=#3333FF;" edge="1" parent="1">
          <mxGeometry width="50" height="50" relative="1" as="geometry">
            <mxPoint x="519.9300000000001" y="510" as="sourcePoint" />
            <mxPoint x="519.9300000000001" y="500" as="targetPoint" />
          </mxGeometry>
        </mxCell>
        <mxCell id="NKrYQFzaIHkAIYK9Q346-79" value="" style="endArrow=none;html=1;rounded=0;strokeColor=#3333FF;" edge="1" parent="1">
          <mxGeometry width="50" height="50" relative="1" as="geometry">
            <mxPoint x="500" y="510" as="sourcePoint" />
            <mxPoint x="500" y="500" as="targetPoint" />
          </mxGeometry>
        </mxCell>
        <mxCell id="NKrYQFzaIHkAIYK9Q346-80" value="" style="endArrow=none;html=1;rounded=0;strokeColor=#3333FF;" edge="1" parent="1">
          <mxGeometry width="50" height="50" relative="1" as="geometry">
            <mxPoint x="540" y="510" as="sourcePoint" />
            <mxPoint x="540" y="500" as="targetPoint" />
          </mxGeometry>
        </mxCell>
        <mxCell id="NKrYQFzaIHkAIYK9Q346-88" value="" style="html=1;shape=mxgraph.electrical.electro-mechanical.pushbutton;aspect=fixed;elSwitchState=off;" vertex="1" parent="1">
          <mxGeometry x="311.25" y="531" width="30" height="8" as="geometry" />
        </mxCell>
        <mxCell id="NKrYQFzaIHkAIYK9Q346-89" value="" style="html=1;shape=mxgraph.electrical.electro-mechanical.singleSwitch;aspect=fixed;elSwitchState=off;" vertex="1" parent="1">
          <mxGeometry x="701.25" y="531.0000000000001" width="28.75" height="7.67" as="geometry" />
        </mxCell>
      </root>
    </mxGraphModel>
  </diagram>
</mxfile>
